<?xml version="1.0" encoding="utf-8"?>
<!DOCTYPE svg PUBLIC "-//W3C//DTD SVG 1.1//EN" "http://www.w3.org/Graphics/SVG/1.1/DTD/svg11.dtd">
<svg version="1.1" xmlns="http://www.w3.org/2000/svg" xmlns:xlink="http://www.w3.org/1999/xlink" x="0px" y="0px" viewBox="0 0 100 100" style="enable-background:new 0 0 100 100;" xml:space="preserve">
	<path d="M87.5,0h-75C5.607,0,0,5.607,0,12.5V25v62.5C0,94.393,5.607,100,12.5,100h75c6.893,0,12.5-5.607,12.5-12.5V25V12.5
		C100,5.607,94.393,0,87.5,0z M95,87.5c0,4.136-3.364,7.5-7.5,7.5h-75C8.364,95,5,91.636,5,87.5V24h90V87.5z M95,20H5v-7.5
		C5,8.364,8.364,5,12.5,5h75c4.136,0,7.5,3.364,7.5,7.5V20z"/>
	<rect x="22" y="11" width="8" height="3"/>
	<polygon points="15.352,8.75 12.988,11.114 10.624,8.75 8.988,10.386 11.352,12.75 8.988,15.114 10.624,16.75 12.988,14.386 
	15.352,16.75 16.988,15.114 14.624,12.75 16.988,10.386"/>
	<polygon points="41,8 38,8 38,11 35,11 35,14 38,14 38,17 41,17 41,14 44,14 44,11 41,11"/>
	<!-- paste here -->
</svg>
