<?xml version="1.0" encoding="utf-8"?>
<!DOCTYPE svg PUBLIC "-//W3C//DTD SVG 1.1//EN" "http://www.w3.org/Graphics/SVG/1.1/DTD/svg11.dtd">
<svg version="1.1" xmlns="http://www.w3.org/2000/svg" xmlns:xlink="http://www.w3.org/1999/xlink" x="0px" y="0px" viewBox="0 0 100 100" style="enable-background:new 0 0 100 100;" xml:space="preserve">
	<path d="M87.5,0h-75C5.607,0,0,5.607,0,12.5V25v62.5C0,94.393,5.607,100,12.5,100h75c6.893,0,12.5-5.607,12.5-12.5V25V12.5
		C100,5.607,94.393,0,87.5,0z M95,87.5c0,4.136-3.364,7.5-7.5,7.5h-75C8.364,95,5,91.636,5,87.5V24h90V87.5z M95,20H5v-7.5
		C5,8.364,8.364,5,12.5,5h75c4.136,0,7.5,3.364,7.5,7.5V20z"/>
	<rect x="22" y="11" width="8" height="3"/>
	<polygon points="15.352,8.75 12.988,11.114 10.624,8.75 8.988,10.386 11.352,12.75 8.988,15.114 10.624,16.75 12.988,14.386 
	15.352,16.75 16.988,15.114 14.624,12.75 16.988,10.386"/>
	<polygon points="41,8 38,8 38,11 35,11 35,14 38,14 38,17 41,17 41,14 44,14 44,11 41,11"/>
	<path d="M35.74 73.15L35.74 68.53L23.64 68.53C24.15 68.14 24.72 67.65 25.35 67.06C25.98 66.47 26.61 65.84 27.26 65.17C27.90 64.50 28.55 63.79 29.21 63.05C29.87 62.31 30.48 61.57 31.04 60.84C31.76 59.89 32.39 59.01 32.91 58.20C33.42 57.39 33.84 56.59 34.17 55.83C34.49 55.06 34.73 54.28 34.88 53.52C35.03 52.75 35.11 51.91 35.11 51.02C35.11 49.73 34.86 48.59 34.35 47.61C33.85 46.63 33.17 45.82 32.32 45.16C31.46 44.50 30.48 44.00 29.38 43.67C28.27 43.33 27.12 43.16 25.91 43.16C24.04 43.16 22.38 43.45 20.94 44.02C19.49 44.60 18.18 45.30 17.01 46.14L19.19 50.01C20.09 49.28 20.95 48.76 21.78 48.45C22.60 48.15 23.52 47.99 24.53 47.99C25.28 47.99 25.98 48.11 26.61 48.35C27.24 48.59 27.77 48.91 28.22 49.32C28.67 49.72 29.02 50.19 29.27 50.72C29.52 51.25 29.65 51.80 29.65 52.36C29.65 53.14 29.54 53.91 29.31 54.65C29.09 55.39 28.75 56.15 28.29 56.92C27.82 57.69 27.24 58.51 26.52 59.37C25.81 60.24 24.98 61.21 24.02 62.27C23.35 63.03 22.67 63.76 21.96 64.46C21.26 65.16 20.60 65.80 19.97 66.39C19.34 66.98 18.77 67.50 18.27 67.96C17.76 68.43 17.34 68.80 17.01 69.08L17.01 73.15ZM39.52 58.41C39.52 63.39 40.46 67.19 42.33 69.81C44.21 72.43 46.93 73.74 50.48 73.74C52.13 73.74 53.64 73.42 55.00 72.79C56.36 72.16 57.52 71.21 58.48 69.94C59.45 68.66 60.20 67.07 60.73 65.15C61.26 63.23 61.53 60.98 61.53 58.41C61.53 53.20 60.58 49.36 58.67 46.88C56.77 44.40 54.05 43.16 50.52 43.16C48.87 43.16 47.38 43.48 46.03 44.11C44.69 44.74 43.53 45.68 42.57 46.94C41.60 48.20 40.85 49.79 40.32 51.71C39.79 53.63 39.52 55.86 39.52 58.41ZM56.15 58.41C56.15 62.13 55.66 64.85 54.68 66.56C53.70 68.26 52.32 69.12 50.52 69.12C48.23 69.12 46.65 67.84 45.78 65.30L56.07 55.93C56.10 56.32 56.12 56.72 56.13 57.13C56.15 57.53 56.15 57.96 56.15 58.41ZM44.90 58.41C44.90 54.77 45.38 52.09 46.35 50.37C47.31 48.64 48.69 47.78 50.48 47.78C52.81 47.78 54.39 48.99 55.23 51.39L44.98 60.76C44.95 60.37 44.93 59.98 44.92 59.61C44.90 59.23 44.90 58.83 44.90 58.41ZM84.04 73.15L84.04 68.53L71.95 68.53C72.45 68.14 73.02 67.65 73.65 67.06C74.28 66.47 74.91 65.84 75.56 65.17C76.20 64.50 76.85 63.79 77.51 63.05C78.17 62.31 78.78 61.57 79.34 60.84C80.06 59.89 80.69 59.01 81.21 58.20C81.72 57.39 82.14 56.59 82.47 55.83C82.79 55.06 83.03 54.28 83.18 53.52C83.33 52.75 83.41 51.91 83.41 51.02C83.41 49.73 83.16 48.59 82.66 47.61C82.15 46.63 81.47 45.82 80.62 45.16C79.76 44.50 78.78 44.00 77.68 43.67C76.57 43.33 75.42 43.16 74.21 43.16C72.34 43.16 70.68 43.45 69.24 44.02C67.79 44.60 66.48 45.30 65.31 46.14L67.49 50.01C68.39 49.28 69.25 48.76 70.08 48.45C70.90 48.15 71.82 47.99 72.83 47.99C73.58 47.99 74.28 48.11 74.91 48.35C75.54 48.59 76.07 48.91 76.52 49.32C76.97 49.72 77.32 50.19 77.57 50.72C77.83 51.25 77.95 51.80 77.95 52.36C77.95 53.14 77.84 53.91 77.62 54.65C77.39 55.39 77.05 56.15 76.59 56.92C76.12 57.69 75.54 58.51 74.82 59.37C74.11 60.24 73.28 61.21 72.32 62.27C71.65 63.03 70.97 63.76 70.27 64.46C69.56 65.16 68.90 65.80 68.27 66.39C67.64 66.98 67.07 67.50 66.57 67.96C66.06 68.43 65.65 68.80 65.31 69.08L65.31 73.15Z"/>
</svg>
