<?xml version="1.0" encoding="utf-8"?>
<!DOCTYPE svg PUBLIC "-//W3C//DTD SVG 1.1//EN" "http://www.w3.org/Graphics/SVG/1.1/DTD/svg11.dtd">
<svg version="1.1" xmlns="http://www.w3.org/2000/svg" xmlns:xlink="http://www.w3.org/1999/xlink" x="0px" y="0px" viewBox="0 0 100 100" style="enable-background:new 0 0 100 100;" xml:space="preserve">
	<path d="M87.5,0h-75C5.607,0,0,5.607,0,12.5V25v62.5C0,94.393,5.607,100,12.5,100h75c6.893,0,12.5-5.607,12.5-12.5V25V12.5
		C100,5.607,94.393,0,87.5,0z M95,87.5c0,4.136-3.364,7.5-7.5,7.5h-75C8.364,95,5,91.636,5,87.5V24h90V87.5z M95,20H5v-7.5
		C5,8.364,8.364,5,12.5,5h75c4.136,0,7.5,3.364,7.5,7.5V20z"/>
	<rect x="22" y="11" width="8" height="3"/>
	<polygon points="15.352,8.75 12.988,11.114 10.624,8.75 8.988,10.386 11.352,12.75 8.988,15.114 10.624,16.75 12.988,14.386 
	15.352,16.75 16.988,15.114 14.624,12.75 16.988,10.386"/>
	<polygon points="41,8 38,8 38,11 35,11 35,14 38,14 38,17 41,17 41,14 44,14 44,11 41,11"/>
	<path d="M38.01 64.96L38.01 60.59L32.97 60.59L32.97 43.54L28.47 43.54L15.16 61.22L15.16 64.96L27.89 64.96L27.89 73.15L32.97 73.15L32.97 64.96ZM27.89 51.27L27.89 60.59L20.58 60.59ZM39.52 58.41C39.52 63.39 40.46 67.19 42.33 69.81C44.21 72.43 46.93 73.74 50.48 73.74C52.13 73.74 53.64 73.42 55.00 72.79C56.36 72.16 57.52 71.21 58.48 69.94C59.45 68.66 60.20 67.07 60.73 65.15C61.26 63.23 61.53 60.98 61.53 58.41C61.53 53.20 60.58 49.36 58.67 46.88C56.77 44.40 54.05 43.16 50.52 43.16C48.87 43.16 47.38 43.48 46.03 44.11C44.69 44.74 43.53 45.68 42.57 46.94C41.60 48.20 40.85 49.79 40.32 51.71C39.79 53.63 39.52 55.86 39.52 58.41ZM56.15 58.41C56.15 62.13 55.66 64.85 54.68 66.56C53.70 68.26 52.32 69.12 50.52 69.12C48.23 69.12 46.65 67.84 45.78 65.30L56.07 55.93C56.10 56.32 56.12 56.72 56.13 57.13C56.15 57.53 56.15 57.96 56.15 58.41ZM44.90 58.41C44.90 54.77 45.38 52.09 46.35 50.37C47.31 48.64 48.69 47.78 50.48 47.78C52.81 47.78 54.39 48.99 55.23 51.39L44.98 60.76C44.95 60.37 44.93 59.98 44.92 59.61C44.90 59.23 44.90 58.83 44.90 58.41ZM72.49 69.12C71.93 69.12 71.36 69.08 70.79 68.99C70.22 68.91 69.66 68.80 69.11 68.66C68.56 68.52 68.07 68.38 67.64 68.24C67.21 68.10 66.86 67.96 66.61 67.82L65.14 72.35C66.32 72.83 67.53 73.18 68.80 73.40C70.06 73.63 71.31 73.74 72.58 73.74C74.06 73.74 75.50 73.54 76.90 73.13C78.30 72.72 79.54 72.11 80.62 71.28C81.70 70.45 82.56 69.44 83.22 68.24C83.88 67.03 84.21 65.63 84.21 64.04C84.21 62.72 83.99 61.56 83.56 60.55C83.12 59.54 82.55 58.70 81.84 58.03C81.12 57.36 80.30 56.85 79.38 56.52C78.46 56.18 77.50 56.01 76.52 56.01L75.56 56.01L82.95 47.57L82.95 43.75L65.81 43.75L65.81 48.37L76.44 48.37L69.38 56.98L69.38 59.96L71.73 59.96C72.74 59.96 73.68 60.03 74.55 60.17C75.42 60.31 76.16 60.55 76.78 60.89C77.39 61.22 77.87 61.68 78.22 62.25C78.57 62.83 78.75 63.53 78.75 64.37C78.75 65.04 78.59 65.67 78.29 66.24C77.98 66.82 77.55 67.32 77.01 67.75C76.46 68.19 75.80 68.52 75.03 68.76C74.26 69.00 73.42 69.12 72.49 69.12Z"/>
</svg>
