<?xml version="1.0" encoding="utf-8"?>
<!DOCTYPE svg PUBLIC "-//W3C//DTD SVG 1.1//EN" "http://www.w3.org/Graphics/SVG/1.1/DTD/svg11.dtd">
<svg version="1.1" xmlns="http://www.w3.org/2000/svg" xmlns:xlink="http://www.w3.org/1999/xlink" x="0px" y="0px" viewBox="0 0 100 100" style="enable-background:new 0 0 100 100;" xml:space="preserve">
	<path d="M87.5,0h-75C5.607,0,0,5.607,0,12.5V25v62.5C0,94.393,5.607,100,12.5,100h75c6.893,0,12.5-5.607,12.5-12.5V25V12.5
		C100,5.607,94.393,0,87.5,0z M95,87.5c0,4.136-3.364,7.5-7.5,7.5h-75C8.364,95,5,91.636,5,87.5V24h90V87.5z M95,20H5v-7.5
		C5,8.364,8.364,5,12.5,5h75c4.136,0,7.5,3.364,7.5,7.5V20z"/>
	<rect x="22" y="11" width="8" height="3"/>
	<polygon points="15.352,8.75 12.988,11.114 10.624,8.75 8.988,10.386 11.352,12.75 8.988,15.114 10.624,16.75 12.988,14.386 
	15.352,16.75 16.988,15.114 14.624,12.75 16.988,10.386"/>
	<polygon points="41,8 38,8 38,11 35,11 35,14 38,14 38,17 41,17 41,14 44,14 44,11 41,11"/>
	<path d="M25.85 43.75L25.85 48.37L28.87 48.37L28.87 73.15L34.33 73.15L34.33 59.75C34.70 58.77 35.31 57.97 36.18 57.34C37.05 56.71 38.00 56.39 39.04 56.39C40.21 56.39 41.17 56.77 41.89 57.53C42.62 58.28 42.99 59.51 42.99 61.22L42.99 73.15L48.45 73.15L48.45 60.09C48.45 58.46 48.26 57.10 47.90 55.99C47.54 54.89 47.03 54.01 46.39 53.37C45.74 52.72 44.97 52.26 44.08 51.98C43.18 51.70 42.20 51.56 41.14 51.56C39.63 51.56 38.31 51.83 37.19 52.36C36.07 52.89 35.17 53.61 34.50 54.50L34.33 54.50L34.33 43.75ZM71.97 73.15L71.97 68.53L59.87 68.53C60.37 68.14 60.94 67.65 61.57 67.06C62.20 66.47 62.84 65.84 63.48 65.17C64.13 64.50 64.78 63.79 65.44 63.05C66.09 62.31 66.70 61.57 67.26 60.84C67.99 59.89 68.61 59.01 69.13 58.20C69.65 57.39 70.07 56.59 70.39 55.83C70.71 55.06 70.95 54.28 71.11 53.52C71.26 52.75 71.34 51.91 71.34 51.02C71.34 49.73 71.08 48.59 70.58 47.61C70.08 46.63 69.40 45.82 68.54 45.16C67.69 44.50 66.71 44.00 65.60 43.67C64.50 43.33 63.34 43.16 62.14 43.16C60.26 43.16 58.60 43.45 57.16 44.02C55.72 44.60 54.41 45.30 53.23 46.14L55.42 50.01C56.31 49.28 57.17 48.76 58.00 48.45C58.83 48.15 59.74 47.99 60.75 47.99C61.51 47.99 62.20 48.11 62.83 48.35C63.46 48.59 64.00 48.91 64.45 49.32C64.90 49.72 65.25 50.19 65.50 50.72C65.75 51.25 65.88 51.80 65.88 52.36C65.88 53.14 65.76 53.91 65.54 54.65C65.32 55.39 64.97 56.15 64.51 56.92C64.05 57.69 63.46 58.51 62.75 59.37C62.03 60.24 61.20 61.21 60.25 62.27C59.58 63.03 58.89 63.76 58.19 64.46C57.49 65.16 56.83 65.80 56.20 66.39C55.56 66.98 55.00 67.50 54.49 67.96C53.99 68.43 53.57 68.80 53.23 69.08L53.23 73.15Z"/>
</svg>
