<?xml version="1.0" encoding="utf-8"?>
<!DOCTYPE svg PUBLIC "-//W3C//DTD SVG 1.1//EN" "http://www.w3.org/Graphics/SVG/1.1/DTD/svg11.dtd">
<svg version="1.1" xmlns="http://www.w3.org/2000/svg" xmlns:xlink="http://www.w3.org/1999/xlink" x="0px" y="0px" viewBox="0 0 100 100" style="enable-background:new 0 0 100 100;" xml:space="preserve">
	<path d="M87.5,0h-75C5.607,0,0,5.607,0,12.5V25v62.5C0,94.393,5.607,100,12.5,100h75c6.893,0,12.5-5.607,12.5-12.5V25V12.5
		C100,5.607,94.393,0,87.5,0z M95,87.5c0,4.136-3.364,7.5-7.5,7.5h-75C8.364,95,5,91.636,5,87.5V24h90V87.5z M95,20H5v-7.5
		C5,8.364,8.364,5,12.5,5h75c4.136,0,7.5,3.364,7.5,7.5V20z"/>
	<rect x="22" y="11" width="8" height="3"/>
	<polygon points="15.352,8.75 12.988,11.114 10.624,8.75 8.988,10.386 11.352,12.75 8.988,15.114 10.624,16.75 12.988,14.386 
	15.352,16.75 16.988,15.114 14.624,12.75 16.988,10.386"/>
	<polygon points="41,8 38,8 38,11 35,11 35,14 38,14 38,17 41,17 41,14 44,14 44,11 41,11"/>
	<path d="M21.14 60.20L21.14 66.65L24.15 66.65L24.15 51.25L21.14 51.25L21.14 57.52L16.16 57.52L16.16 51.25L13.15 51.25L13.15 66.65L16.16 66.65L16.16 60.20ZM27.30 64.23L27.30 66.65L35.30 66.65L35.30 64.23L32.82 64.23L32.82 53.67L34.91 53.67L34.91 56.33L37.33 56.33L37.33 51.25L25.27 51.25L25.27 56.33L27.69 56.33L27.69 53.67L29.80 53.67L29.80 64.23ZM39.95 64.23L39.95 66.65L47.95 66.65L47.95 64.23L45.47 64.23L45.47 53.67L47.56 53.67L47.56 56.33L49.98 56.33L49.98 51.25L37.92 51.25L37.92 56.33L40.34 56.33L40.34 53.67L42.45 53.67L42.45 64.23ZM51.61 51.40L51.61 66.65L54.62 66.65L54.62 61.35C54.69 61.36 54.81 61.38 54.98 61.39C55.15 61.41 55.32 61.42 55.50 61.43C55.68 61.43 55.84 61.44 56.01 61.44L56.36 61.44C57.12 61.44 57.86 61.34 58.57 61.14C59.28 60.94 59.91 60.63 60.47 60.19C61.03 59.76 61.48 59.21 61.81 58.54C62.15 57.88 62.32 57.07 62.32 56.13C62.32 55.06 62.13 54.19 61.74 53.53C61.35 52.86 60.85 52.34 60.23 51.97C59.61 51.59 58.92 51.34 58.15 51.22C57.38 51.09 56.61 51.03 55.85 51.03C55.12 51.03 54.38 51.06 53.64 51.13C52.90 51.20 52.22 51.29 51.61 51.40ZM56.09 53.63C56.48 53.63 56.85 53.66 57.22 53.74C57.58 53.81 57.91 53.94 58.20 54.13C58.48 54.32 58.71 54.58 58.89 54.89C59.06 55.21 59.15 55.61 59.15 56.09C59.15 56.66 59.06 57.12 58.88 57.48C58.69 57.83 58.45 58.10 58.14 58.30C57.83 58.50 57.48 58.63 57.09 58.71C56.71 58.78 56.31 58.82 55.92 58.82L55.64 58.82C55.52 58.82 55.39 58.81 55.26 58.81C55.13 58.80 55.00 58.79 54.88 58.77C54.77 58.76 54.68 58.74 54.62 58.73L54.62 53.74C54.78 53.71 54.99 53.68 55.26 53.66C55.52 53.64 55.80 53.63 56.09 53.63ZM72.09 50.99L64.23 68.72L66.39 69.73L74.24 51.95ZM77.63 64.23L77.63 66.65L87.03 66.65L87.03 64.23L83.73 64.23L83.73 51.25L81.79 51.25L76.77 55.08L78.09 56.84L81.00 54.62L81.00 64.23Z"/>
</svg>
