<?xml version="1.0" encoding="utf-8"?>
<!DOCTYPE svg PUBLIC "-//W3C//DTD SVG 1.1//EN" "http://www.w3.org/Graphics/SVG/1.1/DTD/svg11.dtd">
<svg version="1.1" xmlns="http://www.w3.org/2000/svg" xmlns:xlink="http://www.w3.org/1999/xlink" x="0px" y="0px" viewBox="0 0 100 100" style="enable-background:new 0 0 100 100;" xml:space="preserve">
	<path d="M87.5,0h-75C5.607,0,0,5.607,0,12.5V25v62.5C0,94.393,5.607,100,12.5,100h75c6.893,0,12.5-5.607,12.5-12.5V25V12.5
		C100,5.607,94.393,0,87.5,0z M95,87.5c0,4.136-3.364,7.5-7.5,7.5h-75C8.364,95,5,91.636,5,87.5V24h90V87.5z M95,20H5v-7.5
		C5,8.364,8.364,5,12.5,5h75c4.136,0,7.5,3.364,7.5,7.5V20z"/>
	<rect x="22" y="11" width="8" height="3"/>
	<polygon points="15.352,8.75 12.988,11.114 10.624,8.75 8.988,10.386 11.352,12.75 8.988,15.114 10.624,16.75 12.988,14.386 
	15.352,16.75 16.988,15.114 14.624,12.75 16.988,10.386"/>
	<polygon points="41,8 38,8 38,11 35,11 35,14 38,14 38,17 41,17 41,14 44,14 44,11 41,11"/>
	<path d="M16.03 60.08L16.03 65.35L18.50 65.35L18.50 52.75L16.03 52.75L16.03 57.88L11.97 57.88L11.97 52.75L9.50 52.75L9.50 65.35L11.97 65.35L11.97 60.08ZM21.07 63.37L21.07 65.35L27.63 65.35L27.63 63.37L25.59 63.37L25.59 54.73L27.30 54.73L27.30 56.91L29.28 56.91L29.28 52.75L19.42 52.75L19.42 56.91L21.40 56.91L21.40 54.73L23.13 54.73L23.13 63.37ZM31.42 63.37L31.42 65.35L37.98 65.35L37.98 63.37L35.94 63.37L35.94 54.73L37.65 54.73L37.65 56.91L39.63 56.91L39.63 52.75L29.77 52.75L29.77 56.91L31.75 56.91L31.75 54.73L33.48 54.73L33.48 63.37ZM40.96 52.88L40.96 65.35L43.43 65.35L43.43 61.01C43.49 61.02 43.59 61.04 43.73 61.05C43.87 61.06 44.01 61.07 44.15 61.08C44.29 61.08 44.43 61.08 44.56 61.08L44.85 61.08C45.48 61.08 46.08 61.00 46.66 60.84C47.24 60.68 47.76 60.42 48.22 60.07C48.67 59.71 49.04 59.26 49.32 58.72C49.59 58.17 49.73 57.51 49.73 56.75C49.73 55.87 49.57 55.16 49.25 54.61C48.93 54.07 48.52 53.64 48.02 53.34C47.52 53.03 46.95 52.83 46.32 52.72C45.69 52.62 45.06 52.57 44.44 52.57C43.84 52.57 43.24 52.60 42.63 52.65C42.02 52.71 41.47 52.78 40.96 52.88ZM44.64 54.69C44.95 54.69 45.25 54.72 45.55 54.78C45.85 54.84 46.12 54.95 46.36 55.11C46.59 55.26 46.78 55.47 46.92 55.73C47.07 55.99 47.14 56.31 47.14 56.71C47.14 57.18 47.06 57.56 46.91 57.84C46.76 58.13 46.56 58.36 46.31 58.52C46.06 58.68 45.77 58.79 45.46 58.85C45.14 58.91 44.82 58.94 44.49 58.94L44.27 58.94C44.16 58.94 44.06 58.94 43.95 58.93C43.84 58.93 43.74 58.92 43.65 58.91C43.55 58.89 43.48 58.88 43.43 58.87L43.43 54.78C43.56 54.76 43.74 54.74 43.95 54.72C44.17 54.70 44.40 54.69 44.64 54.69ZM57.72 52.53L51.30 67.04L53.06 67.87L59.49 53.33ZM62.26 63.37L62.26 65.35L69.94 65.35L69.94 63.37L67.24 63.37L67.24 52.75L65.66 52.75L61.56 55.88L62.64 57.32L65.01 55.50L65.01 63.37ZM74.64 64.16C74.64 64.58 74.77 64.92 75.04 65.17C75.30 65.42 75.65 65.55 76.08 65.55C76.54 65.55 76.90 65.42 77.16 65.17C77.43 64.92 77.56 64.58 77.56 64.16C77.56 63.74 77.43 63.41 77.16 63.16C76.90 62.92 76.54 62.79 76.08 62.79C75.65 62.79 75.30 62.92 75.04 63.16C74.77 63.41 74.64 63.74 74.64 64.16ZM82.96 63.37L82.96 65.35L90.64 65.35L90.64 63.37L87.94 63.37L87.94 52.75L86.36 52.75L82.26 55.88L83.34 57.32L85.71 55.50L85.71 63.37Z"/>
</svg>
