<?xml version="1.0" encoding="utf-8"?>
<!DOCTYPE svg PUBLIC "-//W3C//DTD SVG 1.1//EN" "http://www.w3.org/Graphics/SVG/1.1/DTD/svg11.dtd">
<svg version="1.1" xmlns="http://www.w3.org/2000/svg" xmlns:xlink="http://www.w3.org/1999/xlink" x="0px" y="0px" viewBox="0 0 100 100" style="enable-background:new 0 0 100 100;" xml:space="preserve">
	<path d="M87.5,0h-75C5.607,0,0,5.607,0,12.5V25v62.5C0,94.393,5.607,100,12.5,100h75c6.893,0,12.5-5.607,12.5-12.5V25V12.5
		C100,5.607,94.393,0,87.5,0z M95,87.5c0,4.136-3.364,7.5-7.5,7.5h-75C8.364,95,5,91.636,5,87.5V24h90V87.5z M95,20H5v-7.5
		C5,8.364,8.364,5,12.5,5h75c4.136,0,7.5,3.364,7.5,7.5V20z"/>
	<rect x="22" y="11" width="8" height="3"/>
	<polygon points="15.352,8.75 12.988,11.114 10.624,8.75 8.988,10.386 11.352,12.75 8.988,15.114 10.624,16.75 12.988,14.386 
	15.352,16.75 16.988,15.114 14.624,12.75 16.988,10.386"/>
	<polygon points="41,8 38,8 38,11 35,11 35,14 38,14 38,17 41,17 41,14 44,14 44,11 41,11"/>
	<path d="M23.73 68.91C22.64 68.91 21.59 68.74 20.60 68.40C19.61 68.07 18.87 67.76 18.39 67.48L16.63 71.85C17.02 72.04 17.51 72.25 18.08 72.48C18.65 72.70 19.28 72.91 19.95 73.09C20.62 73.27 21.31 73.42 22.01 73.55C22.71 73.68 23.36 73.74 23.98 73.74C25.58 73.74 27.08 73.52 28.47 73.09C29.87 72.65 31.11 72.02 32.17 71.18C33.23 70.34 34.07 69.29 34.69 68.05C35.31 66.80 35.61 65.35 35.61 63.70C35.61 62.30 35.37 61.02 34.88 59.86C34.39 58.69 33.70 57.71 32.80 56.90C31.91 56.08 30.86 55.48 29.65 55.07C28.45 54.66 27.14 54.46 25.74 54.46C25.61 54.46 25.44 54.47 25.26 54.48C25.08 54.49 24.89 54.50 24.69 54.50C24.47 54.53 24.25 54.54 24.02 54.54L24.02 48.79L34.52 48.79L34.52 43.75L19.32 43.75L19.32 59.12C19.77 59.12 20.20 59.11 20.62 59.08C20.99 59.05 21.37 59.03 21.78 59.02C22.18 59.00 22.54 59.00 22.85 59.00C25.28 59.00 27.11 59.44 28.33 60.32C29.55 61.20 30.15 62.41 30.15 63.95C30.15 64.74 29.99 65.44 29.67 66.05C29.35 66.67 28.90 67.19 28.33 67.61C27.75 68.03 27.08 68.35 26.29 68.57C25.51 68.80 24.65 68.91 23.73 68.91ZM39.52 58.41C39.52 63.39 40.46 67.19 42.33 69.81C44.21 72.43 46.93 73.74 50.48 73.74C52.13 73.74 53.64 73.42 55.00 72.79C56.36 72.16 57.52 71.21 58.48 69.94C59.45 68.66 60.20 67.07 60.73 65.15C61.26 63.23 61.53 60.98 61.53 58.41C61.53 53.20 60.58 49.36 58.67 46.88C56.77 44.40 54.05 43.16 50.52 43.16C48.87 43.16 47.38 43.48 46.03 44.11C44.69 44.74 43.53 45.68 42.57 46.94C41.60 48.20 40.85 49.79 40.32 51.71C39.79 53.63 39.52 55.86 39.52 58.41ZM56.15 58.41C56.15 62.13 55.66 64.85 54.68 66.56C53.70 68.26 52.32 69.12 50.52 69.12C48.23 69.12 46.65 67.84 45.78 65.30L56.07 55.93C56.10 56.32 56.12 56.72 56.13 57.13C56.15 57.53 56.15 57.96 56.15 58.41ZM44.90 58.41C44.90 54.77 45.38 52.09 46.35 50.37C47.31 48.64 48.69 47.78 50.48 47.78C52.81 47.78 54.39 48.99 55.23 51.39L44.98 60.76C44.95 60.37 44.93 59.98 44.92 59.61C44.90 59.23 44.90 58.83 44.90 58.41ZM63.67 58.41C63.67 63.39 64.61 67.19 66.48 69.81C68.36 72.43 71.08 73.74 74.63 73.74C76.28 73.74 77.79 73.42 79.15 72.79C80.51 72.16 81.67 71.21 82.63 69.94C83.60 68.66 84.35 67.07 84.88 65.15C85.41 63.23 85.68 60.98 85.68 58.41C85.68 53.20 84.73 49.36 82.82 46.88C80.92 44.40 78.20 43.16 74.68 43.16C73.02 43.16 71.53 43.48 70.18 44.11C68.84 44.74 67.68 45.68 66.72 46.94C65.75 48.20 65.00 49.79 64.47 51.71C63.94 53.63 63.67 55.86 63.67 58.41ZM80.30 58.41C80.30 62.13 79.81 64.85 78.83 66.56C77.85 68.26 76.47 69.12 74.68 69.12C72.38 69.12 70.80 67.84 69.93 65.30L80.22 55.93C80.25 56.32 80.27 56.72 80.28 57.13C80.30 57.53 80.30 57.96 80.30 58.41ZM69.05 58.41C69.05 54.77 69.53 52.09 70.50 50.37C71.46 48.64 72.84 47.78 74.63 47.78C76.96 47.78 78.54 48.99 79.38 51.39L69.13 60.76C69.10 60.37 69.08 59.98 69.07 59.61C69.05 59.23 69.05 58.83 69.05 58.41Z"/>
</svg>
