<?xml version="1.0" encoding="utf-8"?>
<!DOCTYPE svg PUBLIC "-//W3C//DTD SVG 1.1//EN" "http://www.w3.org/Graphics/SVG/1.1/DTD/svg11.dtd">
<svg version="1.1" xmlns="http://www.w3.org/2000/svg" xmlns:xlink="http://www.w3.org/1999/xlink" x="0px" y="0px" viewBox="0 0 100 100" style="enable-background:new 0 0 100 100;" xml:space="preserve">
	<path d="M87.5,0h-75C5.607,0,0,5.607,0,12.5V25v62.5C0,94.393,5.607,100,12.5,100h75c6.893,0,12.5-5.607,12.5-12.5V25V12.5
		C100,5.607,94.393,0,87.5,0z M95,87.5c0,4.136-3.364,7.5-7.5,7.5h-75C8.364,95,5,91.636,5,87.5V24h90V87.5z M95,20H5v-7.5
		C5,8.364,8.364,5,12.5,5h75c4.136,0,7.5,3.364,7.5,7.5V20z"/>
	<rect x="22" y="11" width="8" height="3"/>
	<polygon points="15.352,8.75 12.988,11.114 10.624,8.75 8.988,10.386 11.352,12.75 8.988,15.114 10.624,16.75 12.988,14.386 
	15.352,16.75 16.988,15.114 14.624,12.75 16.988,10.386"/>
	<polygon points="41,8 38,8 38,11 35,11 35,14 38,14 38,17 41,17 41,14 44,14 44,11 41,11"/>
	<path d="M24.19 69.12C23.63 69.12 23.06 69.08 22.49 68.99C21.92 68.91 21.36 68.80 20.81 68.66C20.26 68.52 19.77 68.38 19.34 68.24C18.91 68.10 18.56 67.96 18.31 67.82L16.84 72.35C18.02 72.83 19.23 73.18 20.49 73.40C21.75 73.63 23.01 73.74 24.27 73.74C25.76 73.74 27.20 73.54 28.60 73.13C30.00 72.72 31.24 72.11 32.32 71.28C33.40 70.45 34.26 69.44 34.92 68.24C35.58 67.03 35.91 65.63 35.91 64.04C35.91 62.72 35.69 61.56 35.26 60.55C34.82 59.54 34.25 58.70 33.54 58.03C32.82 57.36 32.00 56.85 31.08 56.52C30.15 56.18 29.20 56.01 28.22 56.01L27.26 56.01L34.65 47.57L34.65 43.75L17.51 43.75L17.51 48.37L28.14 48.37L21.08 56.98L21.08 59.96L23.43 59.96C24.44 59.96 25.38 60.03 26.25 60.17C27.12 60.31 27.86 60.55 28.47 60.89C29.09 61.22 29.57 61.68 29.92 62.25C30.27 62.83 30.45 63.53 30.45 64.37C30.45 65.04 30.29 65.67 29.99 66.24C29.68 66.82 29.25 67.32 28.71 67.75C28.16 68.19 27.50 68.52 26.73 68.76C25.96 69.00 25.11 69.12 24.19 69.12ZM39.52 58.41C39.52 63.39 40.46 67.19 42.33 69.81C44.21 72.43 46.93 73.74 50.48 73.74C52.13 73.74 53.64 73.42 55.00 72.79C56.36 72.16 57.52 71.21 58.48 69.94C59.45 68.66 60.20 67.07 60.73 65.15C61.26 63.23 61.53 60.98 61.53 58.41C61.53 53.20 60.58 49.36 58.67 46.88C56.77 44.40 54.05 43.16 50.52 43.16C48.87 43.16 47.38 43.48 46.03 44.11C44.69 44.74 43.53 45.68 42.57 46.94C41.60 48.20 40.85 49.79 40.32 51.71C39.79 53.63 39.52 55.86 39.52 58.41ZM56.15 58.41C56.15 62.13 55.66 64.85 54.68 66.56C53.70 68.26 52.32 69.12 50.52 69.12C48.23 69.12 46.65 67.84 45.78 65.30L56.07 55.93C56.10 56.32 56.12 56.72 56.13 57.13C56.15 57.53 56.15 57.96 56.15 58.41ZM44.90 58.41C44.90 54.77 45.38 52.09 46.35 50.37C47.31 48.64 48.69 47.78 50.48 47.78C52.81 47.78 54.39 48.99 55.23 51.39L44.98 60.76C44.95 60.37 44.93 59.98 44.92 59.61C44.90 59.23 44.90 58.83 44.90 58.41ZM84.04 73.15L84.04 68.53L71.95 68.53C72.45 68.14 73.02 67.65 73.65 67.06C74.28 66.47 74.91 65.84 75.56 65.17C76.20 64.50 76.85 63.79 77.51 63.05C78.17 62.31 78.78 61.57 79.34 60.84C80.06 59.89 80.69 59.01 81.21 58.20C81.72 57.39 82.14 56.59 82.47 55.83C82.79 55.06 83.03 54.28 83.18 53.52C83.33 52.75 83.41 51.91 83.41 51.02C83.41 49.73 83.16 48.59 82.66 47.61C82.15 46.63 81.47 45.82 80.62 45.16C79.76 44.50 78.78 44.00 77.68 43.67C76.57 43.33 75.42 43.16 74.21 43.16C72.34 43.16 70.68 43.45 69.24 44.02C67.79 44.60 66.48 45.30 65.31 46.14L67.49 50.01C68.39 49.28 69.25 48.76 70.08 48.45C70.90 48.15 71.82 47.99 72.83 47.99C73.58 47.99 74.28 48.11 74.91 48.35C75.54 48.59 76.07 48.91 76.52 49.32C76.97 49.72 77.32 50.19 77.57 50.72C77.83 51.25 77.95 51.80 77.95 52.36C77.95 53.14 77.84 53.91 77.62 54.65C77.39 55.39 77.05 56.15 76.59 56.92C76.12 57.69 75.54 58.51 74.82 59.37C74.11 60.24 73.28 61.21 72.32 62.27C71.65 63.03 70.97 63.76 70.27 64.46C69.56 65.16 68.90 65.80 68.27 66.39C67.64 66.98 67.07 67.50 66.57 67.96C66.06 68.43 65.65 68.80 65.31 69.08L65.31 73.15Z"/>
</svg>
