<?xml version="1.0" encoding="utf-8"?>
<!DOCTYPE svg PUBLIC "-//W3C//DTD SVG 1.1//EN" "http://www.w3.org/Graphics/SVG/1.1/DTD/svg11.dtd">
<svg version="1.1" xmlns="http://www.w3.org/2000/svg" xmlns:xlink="http://www.w3.org/1999/xlink" x="0px" y="0px" viewBox="0 0 100 100" style="enable-background:new 0 0 100 100;" xml:space="preserve">
	<path d="M87.5,0h-75C5.607,0,0,5.607,0,12.5V25v62.5C0,94.393,5.607,100,12.5,100h75c6.893,0,12.5-5.607,12.5-12.5V25V12.5
		C100,5.607,94.393,0,87.5,0z M95,87.5c0,4.136-3.364,7.5-7.5,7.5h-75C8.364,95,5,91.636,5,87.5V24h90V87.5z M95,20H5v-7.5
		C5,8.364,8.364,5,12.5,5h75c4.136,0,7.5,3.364,7.5,7.5V20z"/>
	<rect x="22" y="11" width="8" height="3"/>
	<polygon points="15.352,8.75 12.988,11.114 10.624,8.75 8.988,10.386 11.352,12.75 8.988,15.114 10.624,16.75 12.988,14.386 
	15.352,16.75 16.988,15.114 14.624,12.75 16.988,10.386"/>
	<polygon points="41,8 38,8 38,11 35,11 35,14 38,14 38,17 41,17 41,14 44,14 44,11 41,11"/>
	<path d="M35.74 73.15L35.74 68.53L23.64 68.53C24.15 68.14 24.72 67.65 25.35 67.06C25.98 66.47 26.61 65.84 27.26 65.17C27.90 64.50 28.55 63.79 29.21 63.05C29.87 62.31 30.48 61.57 31.04 60.84C31.76 59.89 32.39 59.01 32.91 58.20C33.42 57.39 33.84 56.59 34.17 55.83C34.49 55.06 34.73 54.28 34.88 53.52C35.03 52.75 35.11 51.91 35.11 51.02C35.11 49.73 34.86 48.59 34.35 47.61C33.85 46.63 33.17 45.82 32.32 45.16C31.46 44.50 30.48 44.00 29.38 43.67C28.27 43.33 27.12 43.16 25.91 43.16C24.04 43.16 22.38 43.45 20.94 44.02C19.49 44.60 18.18 45.30 17.01 46.14L19.19 50.01C20.09 49.28 20.95 48.76 21.78 48.45C22.60 48.15 23.52 47.99 24.53 47.99C25.28 47.99 25.98 48.11 26.61 48.35C27.24 48.59 27.77 48.91 28.22 49.32C28.67 49.72 29.02 50.19 29.27 50.72C29.52 51.25 29.65 51.80 29.65 52.36C29.65 53.14 29.54 53.91 29.31 54.65C29.09 55.39 28.75 56.15 28.29 56.92C27.82 57.69 27.24 58.51 26.52 59.37C25.81 60.24 24.98 61.21 24.02 62.27C23.35 63.03 22.67 63.76 21.96 64.46C21.26 65.16 20.60 65.80 19.97 66.39C19.34 66.98 18.77 67.50 18.27 67.96C17.76 68.43 17.34 68.80 17.01 69.08L17.01 73.15ZM39.52 58.41C39.52 63.39 40.46 67.19 42.33 69.81C44.21 72.43 46.93 73.74 50.48 73.74C52.13 73.74 53.64 73.42 55.00 72.79C56.36 72.16 57.52 71.21 58.48 69.94C59.45 68.66 60.20 67.07 60.73 65.15C61.26 63.23 61.53 60.98 61.53 58.41C61.53 53.20 60.58 49.36 58.67 46.88C56.77 44.40 54.05 43.16 50.52 43.16C48.87 43.16 47.38 43.48 46.03 44.11C44.69 44.74 43.53 45.68 42.57 46.94C41.60 48.20 40.85 49.79 40.32 51.71C39.79 53.63 39.52 55.86 39.52 58.41ZM56.15 58.41C56.15 62.13 55.66 64.85 54.68 66.56C53.70 68.26 52.32 69.12 50.52 69.12C48.23 69.12 46.65 67.84 45.78 65.30L56.07 55.93C56.10 56.32 56.12 56.72 56.13 57.13C56.15 57.53 56.15 57.96 56.15 58.41ZM44.90 58.41C44.90 54.77 45.38 52.09 46.35 50.37C47.31 48.64 48.69 47.78 50.48 47.78C52.81 47.78 54.39 48.99 55.23 51.39L44.98 60.76C44.95 60.37 44.93 59.98 44.92 59.61C44.90 59.23 44.90 58.83 44.90 58.41ZM85.01 64.04C85.01 62.61 84.78 61.33 84.31 60.21C83.85 59.09 83.22 58.15 82.42 57.38C81.63 56.61 80.68 56.02 79.59 55.62C78.50 55.21 77.32 55.01 76.06 55.01C74.72 55.01 73.49 55.25 72.37 55.74C71.24 56.23 70.40 56.83 69.84 57.53C70.10 56.35 70.57 55.22 71.25 54.12C71.94 53.03 72.78 52.04 73.79 51.14C74.80 50.25 75.95 49.48 77.24 48.85C78.53 48.22 79.91 47.77 81.40 47.49L80.18 43.16C78.33 43.44 76.47 44.09 74.59 45.12C72.71 46.14 71.02 47.48 69.51 49.15C68.00 50.81 66.76 52.78 65.79 55.05C64.83 57.32 64.34 59.84 64.34 62.61C64.34 64.46 64.62 66.08 65.18 67.48C65.74 68.88 66.50 70.04 67.45 70.97C68.40 71.89 69.52 72.58 70.79 73.05C72.06 73.51 73.43 73.74 74.89 73.74C76.31 73.74 77.65 73.49 78.90 72.98C80.14 72.48 81.21 71.79 82.11 70.92C83.00 70.06 83.71 69.03 84.23 67.86C84.75 66.68 85.01 65.41 85.01 64.04ZM79.72 64.25C79.72 64.97 79.57 65.64 79.27 66.24C78.98 66.84 78.59 67.35 78.12 67.77C77.64 68.19 77.10 68.52 76.48 68.76C75.86 69.00 75.23 69.12 74.59 69.12C73.78 69.12 73.07 68.98 72.45 68.72C71.83 68.45 71.31 68.09 70.87 67.63C70.44 67.17 70.11 66.63 69.89 66.01C69.66 65.39 69.55 64.75 69.55 64.08C69.55 63.85 69.56 63.55 69.57 63.18C69.59 62.80 69.62 62.45 69.68 62.15C70.10 61.47 70.76 60.89 71.65 60.38C72.55 59.88 73.55 59.63 74.68 59.63C76.22 59.63 77.44 60.02 78.35 60.80C79.26 61.59 79.72 62.73 79.72 64.25Z"/>
</svg>
