<?xml version="1.0" encoding="utf-8"?>
<!DOCTYPE svg PUBLIC "-//W3C//DTD SVG 1.1//EN" "http://www.w3.org/Graphics/SVG/1.1/DTD/svg11.dtd">
<svg version="1.1" xmlns="http://www.w3.org/2000/svg" xmlns:xlink="http://www.w3.org/1999/xlink" x="0px" y="0px" viewBox="0 0 100 100" style="enable-background:new 0 0 100 100;" xml:space="preserve">
	<path d="M87.5,0h-75C5.607,0,0,5.607,0,12.5V25v62.5C0,94.393,5.607,100,12.5,100h75c6.893,0,12.5-5.607,12.5-12.5V25V12.5
		C100,5.607,94.393,0,87.5,0z M95,87.5c0,4.136-3.364,7.5-7.5,7.5h-75C8.364,95,5,91.636,5,87.5V24h90V87.5z M95,20H5v-7.5
		C5,8.364,8.364,5,12.5,5h75c4.136,0,7.5,3.364,7.5,7.5V20z"/>
	<rect x="22" y="11" width="8" height="3"/>
	<polygon points="15.352,8.75 12.988,11.114 10.624,8.75 8.988,10.386 11.352,12.75 8.988,15.114 10.624,16.75 12.988,14.386 
	15.352,16.75 16.988,15.114 14.624,12.75 16.988,10.386"/>
	<polygon points="41,8 38,8 38,11 35,11 35,14 38,14 38,17 41,17 41,14 44,14 44,11 41,11"/>
	<path d="M38.01 64.96L38.01 60.59L32.97 60.59L32.97 43.54L28.47 43.54L15.16 61.22L15.16 64.96L27.89 64.96L27.89 73.15L32.97 73.15L32.97 64.96ZM27.89 51.27L27.89 60.59L20.58 60.59ZM39.52 58.41C39.52 63.39 40.46 67.19 42.33 69.81C44.21 72.43 46.93 73.74 50.48 73.74C52.13 73.74 53.64 73.42 55.00 72.79C56.36 72.16 57.52 71.21 58.48 69.94C59.45 68.66 60.20 67.07 60.73 65.15C61.26 63.23 61.53 60.98 61.53 58.41C61.53 53.20 60.58 49.36 58.67 46.88C56.77 44.40 54.05 43.16 50.52 43.16C48.87 43.16 47.38 43.48 46.03 44.11C44.69 44.74 43.53 45.68 42.57 46.94C41.60 48.20 40.85 49.79 40.32 51.71C39.79 53.63 39.52 55.86 39.52 58.41ZM56.15 58.41C56.15 62.13 55.66 64.85 54.68 66.56C53.70 68.26 52.32 69.12 50.52 69.12C48.23 69.12 46.65 67.84 45.78 65.30L56.07 55.93C56.10 56.32 56.12 56.72 56.13 57.13C56.15 57.53 56.15 57.96 56.15 58.41ZM44.90 58.41C44.90 54.77 45.38 52.09 46.35 50.37C47.31 48.64 48.69 47.78 50.48 47.78C52.81 47.78 54.39 48.99 55.23 51.39L44.98 60.76C44.95 60.37 44.93 59.98 44.92 59.61C44.90 59.23 44.90 58.83 44.90 58.41ZM66.53 68.53L66.53 73.15L84.46 73.15L84.46 68.53L78.16 68.53L78.16 43.75L74.47 43.75L64.89 51.06L67.41 54.42L72.95 50.18L72.95 68.53Z"/>
</svg>
